<?xml version="1.0" encoding="UTF-8" standalone="no"?>
<!-- Created with Inkscape (http://www.inkscape.org/) -->

<svg
   width="640"
   height="160"
   viewBox="0 0 169.33334 42.333333"
   version="1.1"
   id="svg1"
   inkscape:version="1.4.1 (93de688d07, 2025-03-30)"
   sodipodi:docname="logo_brand_black.svg"
   xmlns:inkscape="http://www.inkscape.org/namespaces/inkscape"
   xmlns:sodipodi="http://sodipodi.sourceforge.net/DTD/sodipodi-0.dtd"
   xmlns="http://www.w3.org/2000/svg"
   xmlns:svg="http://www.w3.org/2000/svg">
  <sodipodi:namedview
     id="namedview1"
     pagecolor="#ffffff"
     bordercolor="#666666"
     borderopacity="1.0"
     inkscape:showpageshadow="2"
     inkscape:pageopacity="0.0"
     inkscape:pagecheckerboard="0"
     inkscape:deskcolor="#d1d1d1"
     inkscape:document-units="mm"
     inkscape:zoom="0.93139223"
     inkscape:cx="391.88646"
     inkscape:cy="-6.4419692"
     inkscape:window-width="1920"
     inkscape:window-height="997"
     inkscape:window-x="0"
     inkscape:window-y="0"
     inkscape:window-maximized="1"
     inkscape:current-layer="layer1" />
  <defs
     id="defs1" />
  <g
     inkscape:label="Layer 1"
     inkscape:groupmode="layer"
     id="layer1">
    <path
       id="rect1"
       style="fill:#666666;stroke-width:0.483318"
       d="m 19.031055,10.896388 c -0.399184,-1.48e-4 -0.964964,0.0071 -1.646372,0.02162 -2.539087,0.05394 -2.982132,0.105371 -4.83489,0.562128 -2.32735,0.573759 -4.483838,1.636224 -6.3444389,3.125915 -0.7082722,0.567083 -2.0132968,1.856709 -2.4259997,2.397279 -0.686248,0.898879 -0.9444879,1.35302 -1.1884717,2.090716 -0.1820386,0.550419 -0.2273422,0.888325 -0.2268489,1.689297 4.933e-4,0.754063 0.1427422,1.361793 0.4843582,2.067804 0.2206419,0.456009 0.3143651,0.585844 0.6376411,0.885147 0.4234809,0.392078 0.8829799,0.642493 1.3181941,0.718307 0.4512751,0.07862 1.242018,0.02848 1.6373363,-0.103908 0.5158116,-0.17269 0.9168062,-0.39219 1.449534,-0.793172 0.6252895,-0.470658 1.1527095,-1.083558 2.0913585,-2.430514 0.677612,-0.972363 1.12795,-1.574442 1.917763,-2.564109 0.410143,-0.513932 0.534258,-0.662406 0.711856,-0.851583 0.235796,-0.296717 0.265899,-0.364772 0.417978,-0.566473 0.125349,-0.166249 1.818659,-1.843216 3.251027,-2.733051 1.770187,-1.099704 3.368346,-1.771749 4.912977,-2.066518 0.559429,-0.106758 1.638822,-0.129434 2.246908,-0.04712 0.203545,0.02756 0.44681,0.06063 0.540502,0.07357 0.368599,0.05092 0.875356,0.362755 1.382094,0.850292 0.782094,0.752462 1.106957,1.286985 1.356916,2.232055 0.123391,0.466524 0.110053,1.446424 -0.0271,1.993914 -0.163973,0.654519 -0.479881,1.447673 -0.792529,1.989393 -0.152358,0.263997 -0.268487,0.488298 -0.258152,0.498558 0.0444,0.04409 1.555646,-0.191306 1.616036,-0.251696 0.112057,-0.112057 0.530761,-1.633496 0.599238,-2.177526 0.122922,-0.976535 -0.01355,-2.2924 -0.320428,-3.088157 -0.403955,-1.047483 -1.510936,-2.156235 -2.720296,-2.724809 -0.885602,-0.416363 -1.234306,-0.483681 -2.440193,-0.47113 -0.967955,0.01008 -1.430401,0.100007 -2.716418,0.527924 -2.849899,0.948293 -4.971175,2.171118 -7.243136,4.175629 -1.051143,0.927403 -1.19993,1.099051 -2.627034,3.03298 -0.289681,0.392559 -0.63036,0.868449 -0.75736,1.057457 -0.4427712,0.658993 -1.1719622,1.53338 -1.5650513,1.876782 -0.5936301,0.518597 -0.7545187,0.615067 -1.4214589,0.852875 -0.3515446,0.125352 -0.5077,0.150967 -0.925155,0.151347 C 4.6901096,22.897936 4.5783025,22.878628 4.3285863,22.760789 4.0461054,22.627476 3.6315166,22.251628 3.4244002,21.940828 3.3683874,21.856753 3.2753074,21.636754 3.2175585,21.451949 3.0225564,20.827915 3.1170039,19.585372 3.4131102,18.883326 c 0.07434,-0.176257 0.1686318,-0.432679 0.2094269,-0.569552 0.040776,-0.136872 0.093386,-0.260456 0.1168152,-0.274937 0.023417,-0.01449 0.082933,0.101547 0.1323015,0.258158 0.213211,0.676382 0.6822266,1.092651 1.2685007,1.125547 0.2396938,0.01343 0.3710336,-0.0067 0.5004939,-0.07713 0.2346982,-0.127587 1.578963,-0.983216 2.0436074,-1.300766 0.3450442,-0.235816 0.904136,-0.607493 3.3056512,-2.196565 0.508874,-0.336714 1.065162,-0.717627 1.235911,-0.846744 0.338618,-0.256052 1.376823,-0.976522 2.254645,-1.564405 1.144642,-0.766571 3.212796,-1.775768 4.302125,-2.099432 0.608335,-0.180751 0.965519,-0.348161 0.894825,-0.418854 -0.01474,-0.01475 -0.247162,-0.02212 -0.646352,-0.02227 z m 12.899923,1.083921 c -1.534365,0 -3.258781,0.01596 -3.832285,0.03517 l -1.042938,0.03485 0.319142,0.322046 0.319142,0.321724 3.513786,-0.01387 3.514117,-0.01388 0.109065,-0.138757 c 0.136492,-0.173513 0.136417,-0.233737 -6.24e-4,-0.407882 l -0.109397,-0.139403 z m 4.346978,0.0077 c -0.07516,-0.0047 -0.153982,0.02843 -0.267188,0.09745 -0.207635,0.1266 -0.221479,0.273205 -0.04227,0.452414 0.160533,0.160535 0.388418,0.168644 0.57697,0.02033 0.182832,-0.143813 0.176106,-0.273066 -0.02323,-0.440797 -0.09756,-0.08209 -0.169118,-0.124738 -0.244283,-0.1294 z m -14.181974,1.210137 c -0.284329,0.0086 -0.559872,0.03333 -0.805436,0.07616 -0.472225,0.08235 -1.365234,0.372683 -2.097179,0.681848 -1.004235,0.424179 -2.631505,1.461878 -3.815181,2.433099 -0.966543,0.793053 -2.493034,2.396994 -2.793861,2.935523 l -0.123915,0.222016 0.639571,-0.32076 c 0.351781,-0.176344 0.823788,-0.422038 1.049076,-0.545991 1.181422,-0.650024 3.413506,-1.623186 4.877158,-2.12654 2.754428,-0.947248 3.72932,-1.167141 6.384454,-1.440498 l 0.384004,-0.03972 -0.139402,-0.264285 C 25.379641,14.285943 24.87708,13.800251 24.316427,13.515004 23.880551,13.293243 22.94897,13.172446 22.095982,13.19812 Z m 10.868904,0.65926 c -2.398199,0 -4.376577,0.01604 -4.396353,0.03582 -0.0198,0.01978 0.05564,0.203758 0.167477,0.40885 0.172272,0.315861 0.219574,0.367287 0.309138,0.336568 0.05814,-0.01994 1.937564,-0.03328 4.176598,-0.02969 4.063942,0.0065 4.071079,0.0064 4.18983,-0.104229 0.145072,-0.135089 0.151123,-0.338391 0.01517,-0.515338 l -0.101653,-0.131981 z m -1.041651,1.989399 c -0.816883,6.24e-4 -1.467387,0.0068 -1.754477,0.01773 l -1.043906,0.03972 0.03066,0.298491 c 0.01686,0.16403 0.0374,0.322009 0.04583,0.351089 0.01005,0.03472 1.548503,0.05164 4.487679,0.04939 4.265919,-0.0031 4.477431,-0.0079 4.579959,-0.10068 0.140676,-0.127306 0.136498,-0.307009 -0.0113,-0.473386 L 38.13861,15.89524 34.675804,15.86008 c -0.952318,-0.0097 -1.935678,-0.01405 -2.75256,-0.01324 z m -5.9101,0.737995 c -0.106305,-0.0044 -0.274538,-3.99e-4 -0.523404,0.01161 -1.808098,0.08733 -5.115261,0.894095 -7.996619,1.950996 -0.896031,0.328665 -2.696417,1.097702 -2.696417,1.151685 0,0.02223 0.06525,0.06587 0.145215,0.09681 0.07996,0.03091 0.312111,0.120781 0.515656,0.199742 0.203551,0.07896 0.460073,0.199979 0.570201,0.26913 0.03636,0.02349 0.334905,0.239901 0.367471,0.237322 0.15955,-0.01264 0.331545,-0.05594 0.474541,-0.117144 0.304829,-0.104924 0.521893,-0.18835 0.79242,-0.306681 0.545348,-0.252139 0.749873,-0.340018 0.826412,-0.355928 0.03859,-0.0081 0.109827,-0.03235 0.158441,-0.05389 0.04864,-0.02154 0.100342,-0.0434 0.114879,-0.0484 0.01455,-0.005 0.0622,-0.02367 0.105844,-0.04165 0.13744,-0.05651 1.639753,-0.564662 2.260134,-0.764454 0.327129,-0.105357 0.270201,-0.10323 0.685527,-0.203829 1.471078,-0.356323 3.466461,-1.43352 4.350079,-1.984132 0,-0.02285 -0.04409,-0.03634 -0.150373,-0.04096 z m 7.574543,1.165886 c -1.791768,-0.0025 -3.378818,0.0065 -3.789366,0.02741 l -0.673784,0.03422 v 0.309138 0.309139 l 5.458655,-0.0037 c 3.002345,-0.0019 5.565948,-0.02004 5.696801,-0.03972 0.216215,-0.03247 0.239182,-0.05008 0.253313,-0.194259 0.0086,-0.08723 -0.01911,-0.206448 -0.06163,-0.264609 -0.07377,-0.100923 -0.158853,-0.107149 -1.866121,-0.139077 -1.229541,-0.02298 -3.22609,-0.03616 -5.017859,-0.0384 z m 7.15085,1.893553 -5.793928,0.01455 c -3.18665,0.0079 -5.836664,0.03516 -5.889124,0.06063 -0.06356,0.03091 -0.0901,0.09252 -0.07939,0.184905 0.01293,0.111632 0.0831,0.172516 0.359799,0.312367 l 0.343671,0.173927 2.405668,-0.02841 c 1.323064,-0.01555 3.822537,-0.02835 5.554489,-0.02841 3.095931,-6.2e-5 3.150913,-0.0019 3.264675,-0.107779 0.157229,-0.146483 0.147039,-0.335665 -0.02516,-0.471126 z M 13.52787,20.512276 c -0.608192,-0.04021 -1.108368,0.07841 -1.767702,0.419503 -0.638603,0.33037 -1.357497,1.066942 -1.568928,1.607325 -0.577701,1.476523 -0.523954,3.018899 0.140051,4.020093 0.16358,0.24665 0.204556,0.277835 0.368511,0.277835 0.101478,0 0.184155,-0.01786 0.183937,-0.03971 -1.69e-4,-0.02179 -0.02229,-0.182426 -0.04908,-0.356897 -0.0945,-0.616228 -0.107274,-1.010816 -0.05195,-1.586031 0.10615,-1.103772 0.310762,-1.609212 0.94678,-2.338865 0.494643,-0.567472 0.725082,-0.755674 1.196215,-0.976147 0.321121,-0.150267 0.423836,-0.170967 0.948072,-0.191031 0.687465,-0.02629 0.999732,0.02966 1.521813,0.27332 0.914159,0.426628 1.845727,1.68944 1.980682,2.684796 l 0.04584,0.336245 0.0439,-0.211362 c 0.0271,-0.130066 0.01936,-0.383791 -0.02036,-0.658941 -0.182804,-1.26735 -1.065241,-2.404161 -2.300477,-2.964246 -0.413009,-0.187271 -0.661382,-0.232737 -1.617335,-0.295912 z m 13.966746,0.08164 c -0.817507,-0.01723 -1.639041,0.170399 -2.229799,0.56794 -0.659584,0.443857 -1.405972,0.985901 -2.062003,1.497935 -1.325588,1.034633 -1.876874,1.389968 -2.748689,1.771255 -0.791093,0.345987 -2.027541,0.724439 -2.463748,0.754132 l -0.374649,0.02548 -0.05907,0.379807 c -0.03247,0.208878 -0.07466,0.420209 -0.09358,0.469515 -0.02935,0.07646 0.0025,0.08971 0.214266,0.08971 0.987762,0 3.54557,-0.84359 4.6971,-1.548921 0.237577,-0.145528 0.610259,-0.365963 0.828347,-0.489847 0.218088,-0.123884 0.438318,-0.262867 0.489204,-0.309139 0.05089,-0.04627 0.102165,-0.08423 0.113905,-0.08423 0.01174,0 0.03778,0.255667 0.05807,0.568265 0.04802,0.739963 0.137946,1.20397 0.342053,1.765766 0.168594,0.464026 0.260762,0.595216 0.4508,0.641513 0.05814,0.01418 0.114723,0.02854 0.125526,0.03197 0.0108,0.0031 0.0031,-0.404198 -0.0168,-0.905797 -0.05021,-1.261319 0.04702,-1.827942 0.451768,-2.637681 0.181377,-0.362847 0.905185,-1.141163 1.329815,-1.429526 0.510367,-0.346587 0.794977,-0.418317 1.548596,-0.390454 0.716059,0.02648 1.058044,0.11777 1.543114,0.411753 0.29171,0.176794 1.049226,0.901945 1.232358,1.179761 l 0.10294,0.156505 3.31e-4,-0.161669 c 6.24e-4,-0.378633 -0.635737,-1.224321 -1.27399,-1.692844 -0.57504,-0.422119 -1.388413,-0.643954 -2.20592,-0.661195 z m -21.1666393,0.06809 c -0.120131,0.01249 -0.2647279,0.03734 -0.4398289,0.07357 -0.3730381,0.07715 -0.4363195,0.077 -0.7428354,0 -0.3721326,-0.09347 -0.5591107,-0.05845 -0.6563557,0.123272 -0.134,0.250378 0.196607,0.681702 0.4698398,0.612788 0.074865,-0.01886 0.2870331,-0.04771 0.4714509,-0.06389 0.1844178,-0.01617 0.5130078,-6.24e-4 0.729928,0.03422 0.4371126,0.07051 0.5631759,0.02997 0.7379959,-0.236852 0.073079,-0.111533 0.07622,-0.156324 0.019982,-0.292042 -0.08889,-0.214597 -0.2298151,-0.288506 -0.5902019,-0.251052 z m 33.4340853,1.07521 -3.497332,0.01742 c -1.923476,0.0095 -3.600757,0.01991 -3.679368,0.04357 -0.144155,0.04351 -0.186115,0.2105 -0.225311,0.316582 -0.0238,0.0644 -0.06346,0.172262 -0.06346,0.267478 0,0.02585 1.647278,0.04452 3.749995,0.04259 l 3.750001,-0.0037 0.135855,-0.118101 c 0.171748,-0.14933 0.170124,-0.184424 -0.01742,-0.394332 z m -25.753381,0.44854 c -0.581447,0.0064 -1.163712,0.250141 -1.619264,0.708634 -0.653353,0.657574 -0.889056,1.419055 -0.772203,2.494408 0.0875,0.805268 0.460629,1.464583 1.051973,1.858703 0.672386,0.448121 1.203084,0.564793 1.889688,0.415625 0.596334,-0.129554 1.025141,-0.408819 1.421134,-0.924836 0.308795,-0.402387 0.389605,-0.571675 0.482423,-1.012928 0.155075,-0.73719 0.08143,-1.412791 -0.223627,-2.051675 -0.175395,-0.367331 -0.825144,-1.03123 -1.212032,-1.23849 -0.320522,-0.17171 -0.66922,-0.2533 -1.018092,-0.249441 z m 13.918664,0.0081 c -0.811243,0.02236 -1.583884,0.514244 -2.013272,1.345951 -0.251752,0.48763 -0.332343,0.824332 -0.331081,1.383055 0.0019,0.894252 0.261518,1.543745 0.82899,2.074587 0.573161,0.536162 0.975872,0.689869 1.740601,0.664742 0.412459,-0.01355 0.53457,-0.04034 0.845775,-0.185548 0.393158,-0.183469 0.659091,-0.409762 0.969366,-0.8248 0.282556,-0.377965 0.353143,-0.533827 0.447572,-0.990985 0.19469,-0.942539 0.0019,-1.819106 -0.554059,-2.522801 C 29.626039,22.840508 29.1202,22.477005 28.740206,22.332615 28.472462,22.23088 28.197755,22.1864 27.927345,22.193856 Z M 1.6328132,22.342897 c -0.048332,0 -0.1322204,0.291473 -0.2426662,0.843839 -0.1254825,0.627582 0.1210885,1.615685 0.2925924,2.130872 0.091381,0.285057 0.1913896,0.441829 0.3633554,0.727035 0.1574152,0.261073 0.2587787,0.346272 0.5357714,0.626516 1.1222956,1.135468 1.9438825,1.187362 2.936153,0.965171 0.3984531,-0.08922 0.9014323,-0.36527 1.1429744,-0.627313 L 6.876553,26.775387 6.7561909,26.6476 C 6.6901499,26.57731 6.606636,26.519495 6.5703182,26.519495 c -0.036343,0 -0.2403308,0.09274 -0.4533795,0.205874 C 5.5924286,27.003891 5.2747664,27.072324 4.8287493,27.002885 4.0395675,26.880019 3.4596615,26.401837 2.8683993,25.607566 2.5588717,25.191762 2.3742466,24.830668 2.147768,24.311786 2.0464534,23.880723 1.9860501,23.785406 1.8961298,23.512972 1.8062095,23.240545 1.7185497,22.865983 1.7012213,22.680429 1.6839241,22.494881 1.6530764,22.342897 1.6328132,22.342897 Z m 12.4910728,0.655388 c 0.384921,0.0019 0.762499,0.16845 1.084888,0.500169 0.915688,0.942177 0.717283,2.681479 -0.370453,3.24789 -0.356072,0.185417 -0.899846,0.243003 -1.207186,0.127787 -0.743079,-0.278566 -1.211851,-1.012884 -1.222354,-1.915172 -0.0078,-0.67088 0.147263,-1.059835 0.586648,-1.470833 0.351214,-0.328516 0.743529,-0.491671 1.128457,-0.489841 z m 13.966415,0.0077 c 0.470351,-0.0025 0.781444,0.144378 1.142006,0.538897 0.368867,0.403593 0.491539,0.755655 0.4934,1.41597 0.0012,0.483153 -0.01268,0.56061 -0.161669,0.879009 -0.193353,0.413177 -0.473418,0.738689 -0.79931,0.929676 -0.350165,0.205211 -0.939592,0.22801 -1.305612,0.05033 -0.335346,-0.162781 -0.732113,-0.56262 -0.901276,-0.90837 -0.243721,-0.498146 -0.256298,-1.337527 -0.02773,-1.854188 0.14484,-0.327447 0.54882,-0.73714 0.89289,-0.905472 0.233724,-0.114355 0.370921,-0.144366 0.667321,-0.145858 z m 7.354144,0.764454 c -4.040463,0 -4.102377,0.0012 -4.048487,0.102296 0.0301,0.05626 0.05451,0.196838 0.05451,0.312686 0,0.354429 0.0062,0.358657 0.463708,0.316238 0.224757,-0.02086 2.058956,-0.0379 4.075919,-0.03809 3.383651,-3.31e-4 3.675042,-0.0074 3.767105,-0.09068 0.141262,-0.127837 0.123877,-0.269155 -0.05489,-0.447897 l -0.154569,-0.154569 z m -7.321873,0.498882 c -0.05514,-0.0079 -0.107705,0.0031 -0.186841,0.02935 -0.227098,0.07495 -0.435451,0.315952 -0.480486,0.555995 -0.04552,0.242772 0.109871,0.54029 0.349153,0.66862 0.22061,0.118314 0.326329,0.122004 0.528569,0.01742 0.19577,-0.101235 0.315595,-0.32982 0.315595,-0.602141 0,-0.297193 -0.08423,-0.449365 -0.323338,-0.583752 -0.08968,-0.05039 -0.14752,-0.07758 -0.202652,-0.08551 z m -14.08388,0.04808 c -0.07897,0.0093 -0.159021,0.03772 -0.236534,0.08616 -0.176131,0.110127 -0.32721,0.379626 -0.32721,0.583745 0,0.28338 0.344176,0.632989 0.623766,0.633445 0.06687,1.06e-4 0.191574,-0.03591 0.276867,-0.08003 0.284205,-0.146964 0.386058,-0.496248 0.24331,-0.833511 -0.116454,-0.275144 -0.343284,-0.417643 -0.580199,-0.389811 z m 22.778162,1.38273 -2.585403,0.02648 -2.585733,0.02648 -0.08971,0.264284 c -0.04939,0.145396 -0.105125,0.311974 -0.12359,0.370128 -0.03335,0.105038 -0.01536,0.105644 2.709642,0.07938 2.602862,-0.0251 2.748976,-0.0316 2.854532,-0.127137 0.152546,-0.138109 0.139377,-0.329508 -0.03422,-0.498234 z m -0.35754,2.876151 -17.244965,0.02192 c -13.032549,0.01661 -17.2734464,0.03715 -17.3608127,0.0839 -0.2366465,0.12665 -0.079167,0.64594 0.2158774,0.711857 0.064849,0.01449 7.8355483,0.02023 17.2685253,0.01293 L 36.489,29.393339 36.613234,29.248773 c 0.160308,-0.186366 0.15683,-0.303243 -0.01486,-0.507269 z m 1.907753,0.0056 c -0.204313,-1.62e-4 -0.266045,0.02398 -0.356578,0.139077 -0.06026,0.07662 -0.109715,0.18473 -0.109715,0.240406 0,0.131389 0.137416,0.396105 0.223627,0.430793 0.138446,0.0557 0.526858,0.03278 0.666359,-0.03934 0.204625,-0.105819 0.301602,-0.302045 0.222334,-0.450158 -0.09911,-0.185179 -0.371882,-0.320534 -0.646027,-0.320753 z m -19.024613,2.061745 c -11.1314775,0 -11.1528024,3.31e-4 -11.2725899,0.179735 -0.1174959,0.175975 0.038091,0.43788 0.3294704,0.554065 0.086205,0.03434 3.9155105,0.05364 11.0144375,0.05583 l 10.881805,0.0037 0.15457,-0.154569 c 0.188526,-0.188521 0.194802,-0.315177 0.02485,-0.498558 l -0.129722,-0.140051 z"
       sodipodi:nodetypes="ccscccccsccccccsssscsscscscsssssscsscccssccccccccsscccscccccccccscsssscccsscccccccccsccsccscsccscccccccccccccccscscsccccsccsscccccccccsccccccccccccccccscssccsccccccccscccscsccccscsssccccccssscccsccccccccccccccccsscccccssscsscssscscsscsscscsscssscccsssscscsccsssccccccscsccccccsccsccccccssscccccsscscccccscccccccscccccccsscscccscccscccs" />
    <text
       xml:space="preserve"
       style="font-size:23.8125px;line-height:1.25;font-family:sans-serif;stroke-width:0.264583"
       x="43.558228"
       y="29.387094"
       id="text1"><tspan
         sodipodi:role="line"
         id="tspan1"
         style="fill:#666666;font-style:normal;font-variant:normal;font-weight:normal;font-stretch:normal;font-size:23.8125px;font-family:Audiowide;-inkscape-font-specification:Audiowide;stroke-width:0.264583"
         x="43.558228"
         y="29.387094">AutoSDV</tspan></text>
  </g>
</svg>
